<mxfile host="app.diagrams.net" modified="2023-03-13T23:43:11.248Z" agent="5.0 (Windows NT 10.0; Win64; x64) AppleWebKit/537.36 (KHTML, like Gecko) Chrome/110.0.0.0 Safari/537.36" etag="_rLtdBTVgWjbtZbZavqb" version="21.0.6" type="github">
  <diagram name="Page-1" id="e7e014a7-5840-1c2e-5031-d8a46d1fe8dd">
    <mxGraphModel dx="2757" dy="762" grid="0" gridSize="38" guides="1" tooltips="1" connect="1" arrows="1" fold="1" page="1" pageScale="1" pageWidth="1169" pageHeight="827" background="#FFF5F5" math="0" shadow="0">
      <root>
        <mxCell id="0" />
        <mxCell id="1" parent="0" />
        <mxCell id="SGoZrqo3IlflcsKEaXbl-61" value="utilisateurs" style="swimlane;fontStyle=1;align=center;verticalAlign=top;childLayout=stackLayout;horizontal=1;startSize=26;horizontalStack=0;resizeParent=1;resizeParentMax=0;resizeLast=0;collapsible=1;marginBottom=0;whiteSpace=wrap;html=1;fillColor=#dae8fc;strokeColor=#6c8ebf;" vertex="1" parent="1">
          <mxGeometry x="-207" y="19" width="310" height="74" as="geometry" />
        </mxCell>
        <mxCell id="SGoZrqo3IlflcsKEaXbl-108" style="edgeStyle=orthogonalEdgeStyle;rounded=0;orthogonalLoop=1;jettySize=auto;html=1;exitX=1;exitY=0.5;exitDx=0;exitDy=0;" edge="1" parent="SGoZrqo3IlflcsKEaXbl-61" source="SGoZrqo3IlflcsKEaXbl-62">
          <mxGeometry relative="1" as="geometry">
            <mxPoint x="536.666748046875" y="39" as="targetPoint" />
          </mxGeometry>
        </mxCell>
        <mxCell id="SGoZrqo3IlflcsKEaXbl-62" value="+ field: type" style="text;strokeColor=#d79b00;fillColor=#ffe6cc;align=left;verticalAlign=top;spacingLeft=4;spacingRight=4;overflow=hidden;rotatable=0;points=[[0,0.5],[1,0.5]];portConstraint=eastwest;whiteSpace=wrap;html=1;" vertex="1" parent="SGoZrqo3IlflcsKEaXbl-61">
          <mxGeometry y="26" width="310" height="26" as="geometry" />
        </mxCell>
        <mxCell id="SGoZrqo3IlflcsKEaXbl-63" value="" style="line;strokeWidth=1;fillColor=none;align=left;verticalAlign=middle;spacingTop=-1;spacingLeft=3;spacingRight=3;rotatable=0;labelPosition=right;points=[];portConstraint=eastwest;strokeColor=inherit;" vertex="1" parent="SGoZrqo3IlflcsKEaXbl-61">
          <mxGeometry y="52" width="310" height="8" as="geometry" />
        </mxCell>
        <mxCell id="SGoZrqo3IlflcsKEaXbl-64" value="+ method(type): type" style="text;strokeColor=#d6b656;fillColor=#fff2cc;align=left;verticalAlign=top;spacingLeft=4;spacingRight=4;overflow=hidden;rotatable=0;points=[[0,0.5],[1,0.5]];portConstraint=eastwest;whiteSpace=wrap;html=1;" vertex="1" parent="SGoZrqo3IlflcsKEaXbl-61">
          <mxGeometry y="60" width="310" height="14" as="geometry" />
        </mxCell>
        <mxCell id="SGoZrqo3IlflcsKEaXbl-69" value="publicateur" style="swimlane;fontStyle=1;align=center;verticalAlign=top;childLayout=stackLayout;horizontal=1;startSize=45;horizontalStack=0;resizeParent=1;resizeParentMax=0;resizeLast=0;collapsible=1;marginBottom=0;whiteSpace=wrap;html=1;strokeColor=#6c8ebf;fillColor=#dae8fc;" vertex="1" parent="1">
          <mxGeometry x="337" y="19" width="321" height="105" as="geometry" />
        </mxCell>
        <mxCell id="SGoZrqo3IlflcsKEaXbl-70" value="+ field: type" style="text;strokeColor=#d79b00;fillColor=#ffe6cc;align=left;verticalAlign=top;spacingLeft=4;spacingRight=4;overflow=hidden;rotatable=0;points=[[0,0.5],[1,0.5]];portConstraint=eastwest;whiteSpace=wrap;html=1;" vertex="1" parent="SGoZrqo3IlflcsKEaXbl-69">
          <mxGeometry y="45" width="321" height="26" as="geometry" />
        </mxCell>
        <mxCell id="SGoZrqo3IlflcsKEaXbl-71" value="" style="line;strokeWidth=1;fillColor=none;align=left;verticalAlign=middle;spacingTop=-1;spacingLeft=3;spacingRight=3;rotatable=0;labelPosition=right;points=[];portConstraint=eastwest;strokeColor=inherit;" vertex="1" parent="SGoZrqo3IlflcsKEaXbl-69">
          <mxGeometry y="71" width="321" height="8" as="geometry" />
        </mxCell>
        <mxCell id="SGoZrqo3IlflcsKEaXbl-72" value="+ method(type): type" style="text;strokeColor=#d6b656;fillColor=#fff2cc;align=left;verticalAlign=top;spacingLeft=4;spacingRight=4;overflow=hidden;rotatable=0;points=[[0,0.5],[1,0.5]];portConstraint=eastwest;whiteSpace=wrap;html=1;" vertex="1" parent="SGoZrqo3IlflcsKEaXbl-69">
          <mxGeometry y="79" width="321" height="26" as="geometry" />
        </mxCell>
        <mxCell id="SGoZrqo3IlflcsKEaXbl-116" style="edgeStyle=orthogonalEdgeStyle;rounded=0;orthogonalLoop=1;jettySize=auto;html=1;entryX=0.521;entryY=0.004;entryDx=0;entryDy=0;entryPerimeter=0;" edge="1" parent="1" source="SGoZrqo3IlflcsKEaXbl-73" target="SGoZrqo3IlflcsKEaXbl-100">
          <mxGeometry relative="1" as="geometry" />
        </mxCell>
        <mxCell id="SGoZrqo3IlflcsKEaXbl-73" value="publication" style="swimlane;fontStyle=1;align=center;verticalAlign=top;childLayout=stackLayout;horizontal=1;startSize=22;horizontalStack=0;resizeParent=1;resizeParentMax=0;resizeLast=0;collapsible=1;marginBottom=0;whiteSpace=wrap;html=1;fillColor=#dae8fc;strokeColor=#6c8ebf;" vertex="1" parent="1">
          <mxGeometry x="902" y="25" width="160" height="82" as="geometry" />
        </mxCell>
        <mxCell id="SGoZrqo3IlflcsKEaXbl-74" value="+ field: type" style="text;strokeColor=#d79b00;fillColor=#ffe6cc;align=left;verticalAlign=top;spacingLeft=4;spacingRight=4;overflow=hidden;rotatable=0;points=[[0,0.5],[1,0.5]];portConstraint=eastwest;whiteSpace=wrap;html=1;" vertex="1" parent="SGoZrqo3IlflcsKEaXbl-73">
          <mxGeometry y="22" width="160" height="26" as="geometry" />
        </mxCell>
        <mxCell id="SGoZrqo3IlflcsKEaXbl-75" value="" style="line;strokeWidth=1;fillColor=none;align=left;verticalAlign=middle;spacingTop=-1;spacingLeft=3;spacingRight=3;rotatable=0;labelPosition=right;points=[];portConstraint=eastwest;strokeColor=inherit;" vertex="1" parent="SGoZrqo3IlflcsKEaXbl-73">
          <mxGeometry y="48" width="160" height="8" as="geometry" />
        </mxCell>
        <mxCell id="SGoZrqo3IlflcsKEaXbl-76" value="+ method(type): type" style="text;strokeColor=#d6b656;fillColor=#fff2cc;align=left;verticalAlign=top;spacingLeft=4;spacingRight=4;overflow=hidden;rotatable=0;points=[[0,0.5],[1,0.5]];portConstraint=eastwest;whiteSpace=wrap;html=1;" vertex="1" parent="SGoZrqo3IlflcsKEaXbl-73">
          <mxGeometry y="56" width="160" height="26" as="geometry" />
        </mxCell>
        <mxCell id="SGoZrqo3IlflcsKEaXbl-77" value="inscription" style="swimlane;fontStyle=1;align=center;verticalAlign=top;childLayout=stackLayout;horizontal=1;startSize=26;horizontalStack=0;resizeParent=1;resizeParentMax=0;resizeLast=0;collapsible=1;marginBottom=0;whiteSpace=wrap;html=1;fillColor=#dae8fc;strokeColor=#6c8ebf;" vertex="1" parent="1">
          <mxGeometry x="195" y="183" width="160" height="86" as="geometry" />
        </mxCell>
        <mxCell id="SGoZrqo3IlflcsKEaXbl-78" value="+ field: type" style="text;strokeColor=#d79b00;fillColor=#ffe6cc;align=left;verticalAlign=top;spacingLeft=4;spacingRight=4;overflow=hidden;rotatable=0;points=[[0,0.5],[1,0.5]];portConstraint=eastwest;whiteSpace=wrap;html=1;" vertex="1" parent="SGoZrqo3IlflcsKEaXbl-77">
          <mxGeometry y="26" width="160" height="26" as="geometry" />
        </mxCell>
        <mxCell id="SGoZrqo3IlflcsKEaXbl-79" value="" style="line;strokeWidth=1;fillColor=none;align=left;verticalAlign=middle;spacingTop=-1;spacingLeft=3;spacingRight=3;rotatable=0;labelPosition=right;points=[];portConstraint=eastwest;strokeColor=inherit;" vertex="1" parent="SGoZrqo3IlflcsKEaXbl-77">
          <mxGeometry y="52" width="160" height="8" as="geometry" />
        </mxCell>
        <mxCell id="SGoZrqo3IlflcsKEaXbl-80" value="+ method(type): type" style="text;strokeColor=#d6b656;fillColor=#fff2cc;align=left;verticalAlign=top;spacingLeft=4;spacingRight=4;overflow=hidden;rotatable=0;points=[[0,0.5],[1,0.5]];portConstraint=eastwest;whiteSpace=wrap;html=1;" vertex="1" parent="SGoZrqo3IlflcsKEaXbl-77">
          <mxGeometry y="60" width="160" height="26" as="geometry" />
        </mxCell>
        <mxCell id="SGoZrqo3IlflcsKEaXbl-81" value="reservation" style="swimlane;fontStyle=1;align=center;verticalAlign=top;childLayout=stackLayout;horizontal=1;startSize=26;horizontalStack=0;resizeParent=1;resizeParentMax=0;resizeLast=0;collapsible=1;marginBottom=0;whiteSpace=wrap;html=1;fillColor=#dae8fc;strokeColor=#6c8ebf;" vertex="1" parent="1">
          <mxGeometry x="-207" y="345" width="160" height="60" as="geometry" />
        </mxCell>
        <mxCell id="SGoZrqo3IlflcsKEaXbl-82" value="+ field: type" style="text;strokeColor=#d79b00;fillColor=#ffe6cc;align=left;verticalAlign=top;spacingLeft=4;spacingRight=4;overflow=hidden;rotatable=0;points=[[0,0.5],[1,0.5]];portConstraint=eastwest;whiteSpace=wrap;html=1;" vertex="1" parent="SGoZrqo3IlflcsKEaXbl-81">
          <mxGeometry y="26" width="160" height="26" as="geometry" />
        </mxCell>
        <mxCell id="SGoZrqo3IlflcsKEaXbl-83" value="" style="line;strokeWidth=1;fillColor=none;align=left;verticalAlign=middle;spacingTop=-1;spacingLeft=3;spacingRight=3;rotatable=0;labelPosition=right;points=[];portConstraint=eastwest;strokeColor=inherit;" vertex="1" parent="SGoZrqo3IlflcsKEaXbl-81">
          <mxGeometry y="52" width="160" height="8" as="geometry" />
        </mxCell>
        <mxCell id="SGoZrqo3IlflcsKEaXbl-109" style="edgeStyle=orthogonalEdgeStyle;rounded=0;orthogonalLoop=1;jettySize=auto;html=1;entryX=1;entryY=0.5;entryDx=0;entryDy=0;" edge="1" parent="1" source="SGoZrqo3IlflcsKEaXbl-85" target="SGoZrqo3IlflcsKEaXbl-92">
          <mxGeometry relative="1" as="geometry" />
        </mxCell>
        <mxCell id="SGoZrqo3IlflcsKEaXbl-85" value="lieu culturel" style="swimlane;fontStyle=1;align=center;verticalAlign=top;childLayout=stackLayout;horizontal=1;startSize=26;horizontalStack=0;resizeParent=1;resizeParentMax=0;resizeLast=0;collapsible=1;marginBottom=0;whiteSpace=wrap;html=1;fillColor=#dae8fc;strokeColor=#6c8ebf;" vertex="1" parent="1">
          <mxGeometry x="409" y="554" width="160" height="86" as="geometry" />
        </mxCell>
        <mxCell id="SGoZrqo3IlflcsKEaXbl-86" value="+ field: type" style="text;strokeColor=#d79b00;fillColor=#ffe6cc;align=left;verticalAlign=top;spacingLeft=4;spacingRight=4;overflow=hidden;rotatable=0;points=[[0,0.5],[1,0.5]];portConstraint=eastwest;whiteSpace=wrap;html=1;" vertex="1" parent="SGoZrqo3IlflcsKEaXbl-85">
          <mxGeometry y="26" width="160" height="26" as="geometry" />
        </mxCell>
        <mxCell id="SGoZrqo3IlflcsKEaXbl-87" value="" style="line;strokeWidth=1;fillColor=none;align=left;verticalAlign=middle;spacingTop=-1;spacingLeft=3;spacingRight=3;rotatable=0;labelPosition=right;points=[];portConstraint=eastwest;strokeColor=inherit;" vertex="1" parent="SGoZrqo3IlflcsKEaXbl-85">
          <mxGeometry y="52" width="160" height="8" as="geometry" />
        </mxCell>
        <mxCell id="SGoZrqo3IlflcsKEaXbl-88" value="+ method(type): type" style="text;strokeColor=#d6b656;fillColor=#fff2cc;align=left;verticalAlign=top;spacingLeft=4;spacingRight=4;overflow=hidden;rotatable=0;points=[[0,0.5],[1,0.5]];portConstraint=eastwest;whiteSpace=wrap;html=1;" vertex="1" parent="SGoZrqo3IlflcsKEaXbl-85">
          <mxGeometry y="60" width="160" height="26" as="geometry" />
        </mxCell>
        <mxCell id="SGoZrqo3IlflcsKEaXbl-89" value="ville" style="swimlane;fontStyle=1;align=center;verticalAlign=top;childLayout=stackLayout;horizontal=1;startSize=26;horizontalStack=0;resizeParent=1;resizeParentMax=0;resizeLast=0;collapsible=1;marginBottom=0;whiteSpace=wrap;html=1;fillColor=#dae8fc;strokeColor=#6c8ebf;" vertex="1" parent="1">
          <mxGeometry x="921" y="480" width="160" height="86" as="geometry" />
        </mxCell>
        <mxCell id="SGoZrqo3IlflcsKEaXbl-90" value="+ field: type" style="text;strokeColor=#d79b00;fillColor=#ffe6cc;align=left;verticalAlign=top;spacingLeft=4;spacingRight=4;overflow=hidden;rotatable=0;points=[[0,0.5],[1,0.5]];portConstraint=eastwest;whiteSpace=wrap;html=1;" vertex="1" parent="SGoZrqo3IlflcsKEaXbl-89">
          <mxGeometry y="26" width="160" height="26" as="geometry" />
        </mxCell>
        <mxCell id="SGoZrqo3IlflcsKEaXbl-91" value="" style="line;strokeWidth=1;fillColor=none;align=left;verticalAlign=middle;spacingTop=-1;spacingLeft=3;spacingRight=3;rotatable=0;labelPosition=right;points=[];portConstraint=eastwest;strokeColor=inherit;" vertex="1" parent="SGoZrqo3IlflcsKEaXbl-89">
          <mxGeometry y="52" width="160" height="8" as="geometry" />
        </mxCell>
        <mxCell id="SGoZrqo3IlflcsKEaXbl-92" value="+ method(type): type" style="text;strokeColor=#d6b656;fillColor=#fff2cc;align=left;verticalAlign=top;spacingLeft=4;spacingRight=4;overflow=hidden;rotatable=0;points=[[0,0.5],[1,0.5]];portConstraint=eastwest;whiteSpace=wrap;html=1;" vertex="1" parent="SGoZrqo3IlflcsKEaXbl-89">
          <mxGeometry y="60" width="160" height="26" as="geometry" />
        </mxCell>
        <mxCell id="SGoZrqo3IlflcsKEaXbl-97" style="edgeStyle=orthogonalEdgeStyle;rounded=0;orthogonalLoop=1;jettySize=auto;html=1;entryX=-0.042;entryY=-0.137;entryDx=0;entryDy=0;entryPerimeter=0;" edge="1" parent="1" source="SGoZrqo3IlflcsKEaXbl-70" target="SGoZrqo3IlflcsKEaXbl-76">
          <mxGeometry relative="1" as="geometry" />
        </mxCell>
        <mxCell id="SGoZrqo3IlflcsKEaXbl-111" style="edgeStyle=orthogonalEdgeStyle;rounded=0;orthogonalLoop=1;jettySize=auto;html=1;entryX=0.75;entryY=0;entryDx=0;entryDy=0;" edge="1" parent="1" source="SGoZrqo3IlflcsKEaXbl-100" target="SGoZrqo3IlflcsKEaXbl-89">
          <mxGeometry relative="1" as="geometry" />
        </mxCell>
        <mxCell id="SGoZrqo3IlflcsKEaXbl-100" value="activité culturel" style="swimlane;fontStyle=1;align=center;verticalAlign=top;childLayout=stackLayout;horizontal=1;startSize=26;horizontalStack=0;resizeParent=1;resizeParentMax=0;resizeLast=0;collapsible=1;marginBottom=0;whiteSpace=wrap;html=1;fillColor=#dae8fc;strokeColor=#6c8ebf;" vertex="1" parent="1">
          <mxGeometry x="965" y="263" width="160" height="86" as="geometry" />
        </mxCell>
        <mxCell id="SGoZrqo3IlflcsKEaXbl-101" value="+ field: type" style="text;strokeColor=#d79b00;fillColor=#ffe6cc;align=left;verticalAlign=top;spacingLeft=4;spacingRight=4;overflow=hidden;rotatable=0;points=[[0,0.5],[1,0.5]];portConstraint=eastwest;whiteSpace=wrap;html=1;" vertex="1" parent="SGoZrqo3IlflcsKEaXbl-100">
          <mxGeometry y="26" width="160" height="26" as="geometry" />
        </mxCell>
        <mxCell id="SGoZrqo3IlflcsKEaXbl-102" value="" style="line;strokeWidth=1;fillColor=none;align=left;verticalAlign=middle;spacingTop=-1;spacingLeft=3;spacingRight=3;rotatable=0;labelPosition=right;points=[];portConstraint=eastwest;strokeColor=inherit;" vertex="1" parent="SGoZrqo3IlflcsKEaXbl-100">
          <mxGeometry y="52" width="160" height="8" as="geometry" />
        </mxCell>
        <mxCell id="SGoZrqo3IlflcsKEaXbl-103" value="+ method(type): type" style="text;strokeColor=#d6b656;fillColor=#fff2cc;align=left;verticalAlign=top;spacingLeft=4;spacingRight=4;overflow=hidden;rotatable=0;points=[[0,0.5],[1,0.5]];portConstraint=eastwest;whiteSpace=wrap;html=1;" vertex="1" parent="SGoZrqo3IlflcsKEaXbl-100">
          <mxGeometry y="60" width="160" height="26" as="geometry" />
        </mxCell>
        <mxCell id="SGoZrqo3IlflcsKEaXbl-107" value="Extends" style="endArrow=block;endSize=16;endFill=0;html=1;rounded=0;" edge="1" parent="1" source="SGoZrqo3IlflcsKEaXbl-72" target="SGoZrqo3IlflcsKEaXbl-77">
          <mxGeometry width="160" relative="1" as="geometry">
            <mxPoint x="511" y="265" as="sourcePoint" />
            <mxPoint x="671" y="265" as="targetPoint" />
          </mxGeometry>
        </mxCell>
        <mxCell id="SGoZrqo3IlflcsKEaXbl-118" style="edgeStyle=orthogonalEdgeStyle;rounded=0;orthogonalLoop=1;jettySize=auto;html=1;entryX=0;entryY=0.5;entryDx=0;entryDy=0;" edge="1" parent="1" source="SGoZrqo3IlflcsKEaXbl-112" target="SGoZrqo3IlflcsKEaXbl-92">
          <mxGeometry relative="1" as="geometry" />
        </mxCell>
        <mxCell id="SGoZrqo3IlflcsKEaXbl-131" style="edgeStyle=orthogonalEdgeStyle;rounded=0;orthogonalLoop=1;jettySize=auto;html=1;" edge="1" parent="1" source="SGoZrqo3IlflcsKEaXbl-112" target="SGoZrqo3IlflcsKEaXbl-102">
          <mxGeometry relative="1" as="geometry">
            <Array as="points">
              <mxPoint x="887" y="319" />
              <mxPoint x="887" y="319" />
            </Array>
          </mxGeometry>
        </mxCell>
        <mxCell id="SGoZrqo3IlflcsKEaXbl-112" value="annonce culturel" style="swimlane;fontStyle=1;align=center;verticalAlign=top;childLayout=stackLayout;horizontal=1;startSize=26;horizontalStack=0;resizeParent=1;resizeParentMax=0;resizeLast=0;collapsible=1;marginBottom=0;whiteSpace=wrap;html=1;fillColor=#dae8fc;strokeColor=#6c8ebf;" vertex="1" parent="1">
          <mxGeometry x="696" y="269" width="160" height="86" as="geometry" />
        </mxCell>
        <mxCell id="SGoZrqo3IlflcsKEaXbl-113" value="+ field: type" style="text;strokeColor=#d79b00;fillColor=#ffe6cc;align=left;verticalAlign=top;spacingLeft=4;spacingRight=4;overflow=hidden;rotatable=0;points=[[0,0.5],[1,0.5]];portConstraint=eastwest;whiteSpace=wrap;html=1;" vertex="1" parent="SGoZrqo3IlflcsKEaXbl-112">
          <mxGeometry y="26" width="160" height="26" as="geometry" />
        </mxCell>
        <mxCell id="SGoZrqo3IlflcsKEaXbl-114" value="" style="line;strokeWidth=1;fillColor=none;align=left;verticalAlign=middle;spacingTop=-1;spacingLeft=3;spacingRight=3;rotatable=0;labelPosition=right;points=[];portConstraint=eastwest;strokeColor=inherit;" vertex="1" parent="SGoZrqo3IlflcsKEaXbl-112">
          <mxGeometry y="52" width="160" height="8" as="geometry" />
        </mxCell>
        <mxCell id="SGoZrqo3IlflcsKEaXbl-115" value="+ method(type): type" style="text;strokeColor=#d6b656;fillColor=#fff2cc;align=left;verticalAlign=top;spacingLeft=4;spacingRight=4;overflow=hidden;rotatable=0;points=[[0,0.5],[1,0.5]];portConstraint=eastwest;whiteSpace=wrap;html=1;" vertex="1" parent="SGoZrqo3IlflcsKEaXbl-112">
          <mxGeometry y="60" width="160" height="26" as="geometry" />
        </mxCell>
        <mxCell id="SGoZrqo3IlflcsKEaXbl-117" style="edgeStyle=orthogonalEdgeStyle;rounded=0;orthogonalLoop=1;jettySize=auto;html=1;entryX=0.5;entryY=0;entryDx=0;entryDy=0;" edge="1" parent="1" source="SGoZrqo3IlflcsKEaXbl-76" target="SGoZrqo3IlflcsKEaXbl-112">
          <mxGeometry relative="1" as="geometry" />
        </mxCell>
        <mxCell id="SGoZrqo3IlflcsKEaXbl-84" value="+ method(type): type" style="text;strokeColor=#d6b656;fillColor=#fff2cc;align=left;verticalAlign=top;spacingLeft=4;spacingRight=4;overflow=hidden;rotatable=0;points=[[0,0.5],[1,0.5]];portConstraint=eastwest;whiteSpace=wrap;html=1;" vertex="1" parent="1">
          <mxGeometry x="-207" y="409" width="160" height="26" as="geometry" />
        </mxCell>
        <mxCell id="SGoZrqo3IlflcsKEaXbl-129" style="edgeStyle=orthogonalEdgeStyle;rounded=0;orthogonalLoop=1;jettySize=auto;html=1;entryX=0;entryY=0.5;entryDx=0;entryDy=0;" edge="1" parent="1" source="SGoZrqo3IlflcsKEaXbl-125" target="SGoZrqo3IlflcsKEaXbl-90">
          <mxGeometry relative="1" as="geometry" />
        </mxCell>
        <mxCell id="SGoZrqo3IlflcsKEaXbl-125" value="localisation" style="swimlane;fontStyle=1;align=center;verticalAlign=top;childLayout=stackLayout;horizontal=1;startSize=26;horizontalStack=0;resizeParent=1;resizeParentMax=0;resizeLast=0;collapsible=1;marginBottom=0;whiteSpace=wrap;html=1;fillColor=#dae8fc;strokeColor=#6c8ebf;" vertex="1" parent="1">
          <mxGeometry x="47" y="565" width="160" height="86" as="geometry" />
        </mxCell>
        <mxCell id="SGoZrqo3IlflcsKEaXbl-126" value="+ field: type" style="text;align=left;verticalAlign=top;spacingLeft=4;spacingRight=4;overflow=hidden;rotatable=0;points=[[0,0.5],[1,0.5]];portConstraint=eastwest;whiteSpace=wrap;html=1;fillColor=#ffe6cc;strokeColor=#d79b00;" vertex="1" parent="SGoZrqo3IlflcsKEaXbl-125">
          <mxGeometry y="26" width="160" height="26" as="geometry" />
        </mxCell>
        <mxCell id="SGoZrqo3IlflcsKEaXbl-127" value="" style="line;strokeWidth=1;fillColor=none;align=left;verticalAlign=middle;spacingTop=-1;spacingLeft=3;spacingRight=3;rotatable=0;labelPosition=right;points=[];portConstraint=eastwest;strokeColor=inherit;" vertex="1" parent="SGoZrqo3IlflcsKEaXbl-125">
          <mxGeometry y="52" width="160" height="8" as="geometry" />
        </mxCell>
        <mxCell id="SGoZrqo3IlflcsKEaXbl-128" value="+ method(type): type" style="text;strokeColor=#d6b656;fillColor=#fff2cc;align=left;verticalAlign=top;spacingLeft=4;spacingRight=4;overflow=hidden;rotatable=0;points=[[0,0.5],[1,0.5]];portConstraint=eastwest;whiteSpace=wrap;html=1;" vertex="1" parent="SGoZrqo3IlflcsKEaXbl-125">
          <mxGeometry y="60" width="160" height="26" as="geometry" />
        </mxCell>
        <mxCell id="SGoZrqo3IlflcsKEaXbl-99" style="edgeStyle=orthogonalEdgeStyle;rounded=0;orthogonalLoop=1;jettySize=auto;html=1;entryX=0.5;entryY=0;entryDx=0;entryDy=0;" edge="1" parent="1" source="SGoZrqo3IlflcsKEaXbl-62" target="SGoZrqo3IlflcsKEaXbl-81">
          <mxGeometry relative="1" as="geometry">
            <mxPoint x="-122.51847330729174" y="231.51854112413184" as="targetPoint" />
          </mxGeometry>
        </mxCell>
        <mxCell id="SGoZrqo3IlflcsKEaXbl-130" style="edgeStyle=orthogonalEdgeStyle;rounded=0;orthogonalLoop=1;jettySize=auto;html=1;entryX=0.221;entryY=1.346;entryDx=0;entryDy=0;entryPerimeter=0;" edge="1" parent="1" source="SGoZrqo3IlflcsKEaXbl-82" target="SGoZrqo3IlflcsKEaXbl-103">
          <mxGeometry relative="1" as="geometry">
            <Array as="points">
              <mxPoint x="1000" y="394" />
            </Array>
          </mxGeometry>
        </mxCell>
      </root>
    </mxGraphModel>
  </diagram>
</mxfile>
